<svg width="120" height="75" xmlns="http://www.w3.org/2000/svg" >  
  <g transform="matrix(1, 0.3, 0, 1, -40, -30)">
  <path d="M50 30 Q50 15 65 15 L135 15 Q150 15 150 30 Q150 45 135 45 L75 45 L60 55 Z" 
        fill="#ae7aff" transform="translate(-15, -10) scale(1.15, 1.6)"/>
  
  <path d="M50 30 Q50 15 65 15 L135 15 Q150 15 150 30 Q150 45 135 45 L75 45 L60 55 Z" fill="transparent"/>

    <path d="M50 30 Q50 15 65 15 L135 15 Q150 15 150 30 Q150 45 135 45 L75 45 L60 55 Z" fill="#222"/>
  
  <text x="60" y="36" font-family="Arial, sans-serif" font-size="18" fill="#ddd" font-weight="900">You-Talk</text>
  </g>  
</svg>